# xmcd CD database file
#
# Track frame offsets:
#	150
#	10969
#	38036
#	69930
#	82060
#	109332
#	124150
#	147951
#	169836
#	198617
#	220897
#	232927
#	256107
#	276213
#	296605
#	325698
#
# Disc length: 4588 seconds
#
# Revision: 1
# Processed by: cddbd v1.5.2PL0 Copyright (c) Steve Scherf et al.
# Submitted via: CDex 1.51
#
DISCID=ea11ea10
DTITLE=Various Artist - Bar Jazz 3 CD 1 Happy Hour
DYEAR=1940
DGENRE=Jazz
TTITLE0=Charlie Byrd - Jazz 'N' Samba (So Danco Samba)
TTITLE1=Charlie Rouse - Lil Rousin'
TTITLE2=Chet Baker - Autumn Leaves
TTITLE3=Duke Ellington - In A Mellow Dream
TTITLE4=Ellis Marsalis Trio - Tell Me (live)
TTITLE5=Erroll Garner - Lullaby Of Birdland
TTITLE6=Gato Barbieri - Mystica
TTITLE7=George Duke - Summer Breezin'
TTITLE8=Georges Arvanitas - Dear Old Stockholm
TTITLE9=Greg Adams - Mahdi, The Expected One
TTITLE10=Kai Winding And His Septett - Whistle While You Work
TTITLE11=Kyle Eastwood - Stanley Hill Dr
TTITLE12=Peter White - Bittersweet
TTITLE13=Terence Blanchard - Orizimbo And Rosicler
TTITLE14=The Thelonious Monk Quartet - Monk's Dream
TTITLE15=Tony Williams Trio - Promothean
EXTD=YEAR: 1940
EXTT0=
EXTT1=
EXTT2=
EXTT3=
EXTT4=
EXTT5=
EXTT6=
EXTT7=
EXTT8=
EXTT9=
EXTT10=
EXTT11=
EXTT12=
EXTT13=
EXTT14=
EXTT15=
PLAYORDER=
